<svg width="135" height="123" fill="none" xmlns="http://www.w3.org/2000/svg"><path stroke="#000" stroke-width="5" d="M17 3h115v117H17z"/><mask id="a" mask-type="alpha" maskUnits="userSpaceOnUse" x="-2" y="1" width="119" height="121"><path fill="#000" stroke="#000" stroke-width="3" d="M0 3h115v117H0z"/></mask><g mask="url(#a)"><path d="M119.742 20.402v7.403h-3.379c1.38 1.107 2.364 2.226 2.95 3.36.598 1.132.898 2.512.898 4.14 0 2.2-.658 3.919-1.973 5.156-1.302 1.25-3.32 1.875-6.054 1.875H99v-7.988h11.406c1.302 0 2.22-.241 2.754-.723.547-.482.82-1.159.82-2.031 0-.964-.364-1.745-1.093-2.344-.729-.599-2.038-.898-3.926-.898H99v-7.95h20.742zM107.398 67.71V51.772c-1.276.143-2.226.488-2.851 1.035-.899.768-1.348 1.77-1.348 3.008 0 .781.196 1.523.586 2.226.248.43.684.892 1.309 1.387l-.723 7.832c-2.083-1.198-3.581-2.643-4.492-4.336-.898-1.693-1.348-4.12-1.348-7.285 0-2.747.384-4.909 1.153-6.484.781-1.576 2.011-2.884 3.691-3.926 1.693-1.029 3.678-1.543 5.957-1.543 3.242 0 5.866 1.035 7.871 3.105 2.005 2.084 3.008 4.955 3.008 8.614 0 2.968-.449 5.312-1.348 7.03a9.094 9.094 0 01-3.906 3.927c-1.706.898-3.926 1.347-6.66 1.347h-.899zm3.809-8.086c1.536-.156 2.637-.572 3.301-1.25.664-.664.996-1.542.996-2.636 0-1.263-.501-2.272-1.504-3.028-.625-.481-1.556-.787-2.793-.918v7.832zm8.535 9.397v7.422h-3.027c1.263 1.068 2.161 2.142 2.695 3.223.534 1.094.801 2.409.801 3.945 0 1.654-.293 2.962-.879 3.926-.586.963-1.458 1.751-2.617 2.363 1.354 1.25 2.272 2.39 2.754 3.418.495 1.029.742 2.298.742 3.809 0 2.226-.664 3.965-1.992 5.215-1.315 1.25-3.379 1.875-6.192 1.875H99v-7.97h11.816c.938 0 1.635-.181 2.09-.546.716-.534 1.074-1.198 1.074-1.992 0-.938-.338-1.693-1.015-2.266-.677-.573-1.764-.86-3.262-.86H99v-7.968h11.426c.911 0 1.53-.052 1.855-.156.521-.17.938-.462 1.25-.88.326-.416.489-.904.489-1.464 0-.911-.346-1.66-1.036-2.246-.69-.586-1.823-.879-3.398-.879H99V69.02h20.742z" fill="#000"/></g></svg>